# xmcd
# 
# Track frame offsets:
#     150
#     18515
#     36917
#     55270
# 
# Disc length: 979
# 
# Revision: 12
# Processed by: cddbd v1.5.2PL0 Copyright (c) Steve Scherf et al.
# Submitted via: BonkEnc v1.0.15
# 
DISCID=2d03d104
DTITLE=Do As Infinity - 深い森
DYEAR=2001
DGENRE=JRock
TTITLE0=深い森
TTITLE1=翼の計画
TTITLE2=深い森（instrumental)
TTITLE3=翼の計画（instrumental)
EXTD=
EXTT0=
EXTT1=
EXTT2=
EXTT3=
PLAYORDER=
